# xmcd
#
# Track frame offsets:
# 150
# 20079
# 38247
# 55028
# 77680
# 92733
# 115074
# 138875
# 157121
# 179452
#
# Disc length: 2613 seconds
#
#
# Revision: 0
# Processed by: cddbd v1.5.1PL2 Copyright (c) Steve Scherf et al.
# Submitted via: FreeRIP 2.944 
#
DISCID=7c0a330a
DTITLE=John Denver It's about time - It's about time
DYEAR=1983
DGENRE=country
TTITLE0=Hold on tightly
TTITLE1=Thought of you
TTITLE2=Somethin' about
TTITLE3=On the wings of a dream
TTITLE4=Flight (the higher we fly
TTITLE5=Falling out of love
TTITLE6=I remember romance
TTITLE7=Wild Montana skies
TTITLE8=World game
TTITLE9=It's about time
EXTD=
EXTT0=
EXTT1=
EXTT2=
EXTT3=
EXTT4=
EXTT5=
EXTT6=
EXTT7=
EXTT8=
EXTT9=
PLAYORDER=
